# xmcd
#
# Track frame offsets:
#	150
#	18450
#	31125
#	48450
#	68550
#	88275
#	102225
#	111997
#	127575
#	142747
#	159825
#	174150
#	185787
#	205950
#	220672
#
# Disc length: 3091 seconds
#
# Revision: 1
# Processed by: cddbd v1.5.2PL0 Copyright (c) Steve Scherf et al.
# Submitted via: audiograbber 1.83.01
#
DISCID=c20c110f
DTITLE=Sampler - Boots and Roots Music
DYEAR=1996
DGENRE=Country
TTITLE0=Jann Browne - Hearts On The Blue Train 
TTITLE1=South Monuntain - Midnight Delight
TTITLE2=Chris Gaffrey - The Garden
TTITLE3=Donkey Biters - Forgive Me
TTITLE4=Mungo Jerry - All I Wanna Do
TTITLE5=Autumn Leaves - Cowboys Never Cry
TTITLE6=Gunsmoke - Redneck Saturday Night
TTITLE7=Becky Hobbs - The Boots I Came To Town In
TTITLE8=James Lynch - Let It Go
TTITLE9=The Goods - That's What Highways Are For
TTITLE10=Stop The Truck - Old Side Of Town
TTITLE11=Bobby Lalonde Band - Somedays 
TTITLE12=Amber - Empty Inside
TTITLE13=Kimmie Rhodes - It'll Do
TTITLE14=Branscombe Richmond - Bobby Sixkiller
EXTD=YEAR: 1996
EXTT0=
EXTT1=
EXTT2=
EXTT3=
EXTT4=
EXTT5=
EXTT6=
EXTT7=
EXTT8=
EXTT9=
EXTT10=
EXTT11=
EXTT12=
EXTT13=
EXTT14=
PLAYORDER=
